<svg xmlns="http://www.w3.org/2000/svg" viewBox="0 0 64 80" x="0px" y="0px"><g data-name="Layer 7"><path d="M32,10.5A21.53,21.53,0,0,0,10.5,32c1.18,28.52,41.82,28.51,43,0A21.53,21.53,0,0,0,32,10.5Zm0,40A18.52,18.52,0,0,1,13.5,32c1-24.54,36-24.54,37,0A18.52,18.52,0,0,1,32,50.5Z"/><path d="M32,28.57a1.5,1.5,0,0,0-1.5,1.5v9.41a1.5,1.5,0,0,0,3,0V30.07A1.5,1.5,0,0,0,32,28.57Z"/><path d="M30.94,22.92a1.45,1.45,0,0,0-.19.23,1.59,1.59,0,0,0-.14.26,2.29,2.29,0,0,0-.08.28,1.5,1.5,0,1,0,.41-.77Z"/></g></svg>
