<?xml version="1.0" encoding="UTF-8"?>
<svg width="150px" height="121px" viewBox="0 0 150 121" version="1.1" xmlns="http://www.w3.org/2000/svg" xmlns:xlink="http://www.w3.org/1999/xlink">
    <!-- Generator: Sketch 64 (93537) - https://sketch.com -->
    <title>Antlers.run</title>
    <desc>Created with Sketch.</desc>
    <defs>
        <linearGradient x1="40.4679167%" y1="17.7226625%" x2="75.0021893%" y2="82.4135141%" id="linearGradient-1">
            <stop stop-color="#DA2FB6" offset="0%"></stop>
            <stop stop-color="#FE1876" offset="100%"></stop>
        </linearGradient>
    </defs>
    <g id="Page-1" stroke="none" stroke-width="1" fill="none" fill-rule="evenodd">
        <g id="Antlers.run" fill="url(#linearGradient-1)" fill-rule="nonzero">
            <g id="Statamic-Logo-Rad">
                <path d="M123.527,120.429 C134.427,120.429 138.427,115.729 138.427,104.229 L138.427,81.829 C138.427,71.129 143.627,65.029 148.627,62.129 C150.127,61.229 150.127,59.129 148.627,58.129 C143.427,54.829 138.427,47.929 138.427,38.729 L138.427,16.729 C138.427,4.329 135.027,0.729 124.127,0.729 L26.227,0.729 C15.327,0.729 11.927,4.329 11.927,16.729 L11.927,38.729 C11.927,47.929 6.927,54.829 1.727,58.129 C0.227,59.029 0.227,61.229 1.727,62.129 C6.727,64.929 11.927,71.029 11.927,81.829 L11.927,104.229 C11.927,115.729 15.927,120.429 26.827,120.429 L123.527,120.429 Z M74.927,99.929 C63.227,99.929 54.727,96.429 46.827,89.529 C45.527,88.329 45.027,86.829 45.027,85.329 C45.027,84.129 45.327,82.829 46.227,81.829 L48.627,78.729 C49.827,77.229 51.127,76.529 52.627,76.529 C54.327,76.529 55.927,77.229 57.627,78.329 C63.027,81.829 69.027,83.829 76.227,83.829 C81.727,83.829 86.127,81.529 86.127,76.829 C86.127,64.629 45.527,71.329 45.527,43.929 C45.527,29.229 57.527,21.029 73.127,21.029 C84.127,21.029 92.227,24.229 98.227,28.029 C99.727,29.029 100.727,31.029 100.727,33.029 C100.727,34.229 100.427,35.329 99.727,36.329 L97.927,39.029 C96.627,40.829 95.127,41.729 93.227,41.729 C91.927,41.729 90.527,41.229 89.027,40.529 C84.527,38.229 79.827,37.029 74.127,37.029 C68.227,37.029 64.727,40.229 64.727,43.529 C64.727,56.029 105.327,49.229 105.327,75.829 C105.327,90.729 93.327,99.929 74.927,99.929 Z" id="Shape"></path>
            </g>
        </g>
    </g>
</svg>